<svg width="490" height="420" viewBox="0 0 490 420" fill="none" xmlns="http://www.w3.org/2000/svg">
    <path
            d="M695.771 233.172C645.694 214.472 593.751 189.421 542.844 177.649C525.556 173.651 508.294 168.244 490.98 165.039C470.932 161.328 449.218 163.63 430.109 165.079C386.055 168.421 347.526 187.8 306.337 198.387C267.363 208.404 238.103 224.568 210.53 251.464C193.403 268.17 190.805 304.266 189.007 329.338C187.034 356.859 172.426 378.565 169.468 405.453C164.65 449.235 142.782 475.548 114.265 503.364C105.27 512.138 96.2763 520.911 87.2822 529.685C80.2399 536.554 78.5312 543.042 74.9843 529.041"
            stroke="currentColor" stroke-width="3" stroke-linecap="round"/>
    <path
            d="M626.113 237.92C580.875 214.671 529.021 198.793 481.788 192.965C461.513 190.464 446.442 187.737 429.025 194.752C408.059 203.195 384.575 208.165 362.381 214.115C339.481 220.255 313.602 227.652 296.496 243.447C276.455 261.952 267.792 286.087 253.502 309.086C241.908 327.746 244.131 352.272 238.665 374.118C230.691 405.992 222.06 435.669 219.401 469.627C218.708 478.469 213.783 487.326 211.301 495.609C207.84 507.162 202.785 517.827 199.386 529.352C196.581 538.863 188.085 545.116 181.482 551.556C176.545 556.372 174.329 563.255 170.18 553.101"
            stroke="currentColor" stroke-width="3" stroke-linecap="round"/>
    <path
            d="M590.383 253.813C572.212 249.457 556.465 249.795 539.293 251.334C533.735 251.832 529.438 254.269 523.376 252.816C517.435 251.391 511.271 247.573 505.346 246.879C484.093 244.389 461.325 241.699 440.29 241.17C419.34 240.643 402.09 246.655 382.013 248.685C358.797 251.032 344.059 257.092 328.549 272.221C312.743 287.639 298.464 307.608 293.869 330.627C292.611 336.933 287.847 341.292 286.853 347.653C285.304 357.567 284.942 367.729 283.418 377.688C280.934 393.921 278.961 413.454 282.585 430.815C284.551 440.228 282.236 449.472 283.091 458.762C283.97 468.321 286.421 478.598 289.294 488.173C292.049 497.355 293.931 508.781 292.781 517.425C292.213 521.688 290.194 542.779 293.721 543.192"
            stroke="currentColor" stroke-width="3" stroke-linecap="round"/>
    <path
            d="M520.524 302.998C468.632 300.906 416.234 301.573 367.45 311.519C351.346 314.802 341.105 320.013 329.899 330.943C315.721 344.774 316.22 361.004 311.638 380.356C304.139 412.028 318.033 442.945 321.086 476.121C321.775 483.602 328.629 511.323 337.573 506.737"
            stroke="currentColor" stroke-width="3" stroke-linecap="round"/>
</svg>
