<svg fill="none" xmlns="http://www.w3.org/2000/svg" viewBox="0 0 275 280">
    <g fill="#FF922D">
        <path d="M58.108.447c.732 2.472-3.161 6.438-9.659 12.675-2.716 2.607-5.283 5.07-6.302 6.545C33.923 31.58 26.25 47.281 22.12 60.642c-2.147 6.946-4.858 13.84-7.48 20.507-3.665 9.319-7.453 18.953-9.69 28.744a88.915 88.915 0 0 0-1.79 28.56c.253 2.563.428 5.292.605 8.079.41 6.418.835 13.054 2.268 18.721 5.56 21.981 24.667 50.858 42.565 64.383l4.463 3.379c16.549 12.551 33.663 25.528 52.748 33.223 14.044 5.658 32.826 12.026 53.598 11.016l2.97-.145c12.231-.602 24.879-1.224 37.097-.746 2.097.081 4.2.206 6.307.33 7.056.418 14.351.85 21.374-.425 37.39-6.788 68.845-43.213 77.595-54.214l1.741 1.384c-8.872 11.156-40.784 48.092-78.938 55.019-7.286 1.323-14.717.882-21.902.456-2.093-.122-4.181-.247-6.264-.328-12.12-.474-24.719.146-36.901.745l-2.973.147c-21.201 1.03-40.28-5.432-54.533-11.177-19.365-7.804-36.596-20.873-53.263-33.512l-4.46-3.376c-18.253-13.771-37.716-43.213-43.38-65.613-1.485-5.867-1.915-12.607-2.331-19.125-.177-2.762-.35-5.463-.6-8.003a91.112 91.112 0 0 1 1.836-29.272c2.273-9.955 6.093-19.67 9.788-29.064 2.607-6.63 5.303-13.484 7.425-20.35 4.192-13.562 11.98-29.495 20.324-41.581 1.144-1.66 3.79-4.2 6.59-6.887 3.265-3.133 9.341-8.966 9.066-10.444l2.134-.626Z"/>
        <path d="m156.18 105.933 1.644 1.499c-4.507 4.949-6.937 10.891-6.496 15.894.328 3.722 2.165 6.888 5.441 9.422 4.611 3.551 13.188 6.036 18.608 4.074 2.785-1.009 4.545-3.077 5.23-6.149l2.171.485c-.85 3.808-3.148 6.491-6.643 7.755-6.307 2.282-15.668-.508-20.723-4.403-3.795-2.918-5.917-6.622-6.3-10.989-.501-5.695 2.075-12.106 7.068-17.588Z"/>
        <path d="m142.809 96.147 1.421 1.712c-5.472 4.541-5.874 13.235-6.197 20.221-.045.968-.088 1.907-.143 2.805-.659 10.842 4.245 15.544 14.795 21.416 6.069 3.379 25.075 9.012 34.35 4.581 2.812-1.343 4.429-3.438 4.943-6.405l2.191.38c-.636 3.677-2.714 6.379-6.175 8.033-9.766 4.664-29.162-.622-36.39-4.646-11.138-6.199-16.659-11.535-15.933-23.493.053-.889.096-1.817.14-2.774.344-7.423.771-16.662 6.998-21.83Z"/>
        <path d="m136.405 82.85 1.587 1.558c-6.88 7.01-12.484 17.472-14.628 27.305-3.194 14.656-2.453 23.5 10.673 34.078 13.04 10.552 46.219 31.828 72.586 1.575l1.678 1.462c-19.462 22.329-47.039 21.853-75.665-1.307-13.863-11.262-14.766-21.048-11.446-36.281 2.227-10.221 8.057-21.099 15.215-28.39Z"/>
        <path d="M126.818 67.462c-8.565 16.016-13.348 34.19-12.798 48.616.732 19.131 7.886 30.786 24.688 40.23 2.187 1.228 4.518 2.609 6.955 4.052 11.22 6.642 25.186 14.908 37.18 15.235 15.089.41 30.387-6.827 40.92-19.359l1.704 1.431c-10.967 13.048-26.923 20.581-42.684 20.152-12.572-.341-26.812-8.772-38.253-15.545-2.423-1.434-4.739-2.806-6.911-4.026-17.573-9.88-25.055-22.072-25.822-42.087-.566-14.802 4.317-33.4 13.06-49.748l1.961 1.05Z"/>
        <path d="M117.823 59.358c-.619 2.74-2.239 5.625-3.807 8.415-1.433 2.547-2.915 5.183-3.622 7.673-1.091 3.836-1.741 8.129-2.37 12.28-.376 2.47-.764 5.025-1.237 7.43-2.743 13.943-4.834 34.362.786 52.452 3.597 11.577 15.781 22.266 32.596 28.597 1.775.668 3.561 1.36 5.358 2.054 15.294 5.914 31.107 12.029 46.883 7.111l1.932-.601c14.858-4.612 31.699-9.839 41.606-21.972l1.723 1.408c-10.33 12.65-27.511 17.984-42.67 22.689l-1.929.6c-16.517 5.149-32.698-1.108-48.345-7.16a634.214 634.214 0 0 0-5.342-2.047c-17.454-6.571-30.137-17.793-33.936-30.02-5.758-18.534-3.637-39.344-.845-53.54.465-2.36.85-4.888 1.219-7.334.641-4.22 1.303-8.585 2.43-12.555.781-2.744 2.327-5.496 3.824-8.156 1.556-2.772 3.029-5.39 3.576-7.814l2.17.49Z"/>
        <path d="M111.435 44.45c.159.85-.551 2.44-4.467 10-1.325 2.563-2.58 4.982-3.152 6.286-1.523 3.47-3.232 6.71-4.882 9.845-3.596 6.821-6.992 13.264-8.22 21.356-4.824 31.81-3.348 53.335 4.514 65.805 7.759 12.309 26.68 24.885 41.36 30.949 21.973 9.074 43.623 16.796 66.899 11.674 8.049-1.772 15.113-6.22 21.659-10.624 6.316-4.249 17.773-12.488 23.55-19.928l1.757 1.365c-5.967 7.685-17.638 16.085-24.065 20.408-6.724 4.524-13.993 9.096-22.423 10.951-23.886 5.256-46.802-2.943-68.227-11.791-15.005-6.197-34.384-19.116-42.391-31.818-8.16-12.942-9.74-34.964-4.83-67.325 1.282-8.462 4.762-15.067 8.448-22.059 1.633-3.1 3.323-6.306 4.815-9.702.601-1.369 1.87-3.82 3.214-6.415 1.635-3.157 4.105-7.929 4.243-8.786l2.198-.191Z"/>
        <path d="M102.41 39.404c-3.237 7.015-7.19 14.158-11.375 21.722-4.894 8.843-9.955 17.988-13.757 26.893-13.441 31.48-13.463 58.797-.06 81.193 10.874 18.175 39.975 27.192 61.224 33.777 1.834.568 3.607 1.117 5.303 1.652a846.46 846.46 0 0 1 5.453 1.753c17.886 5.794 42.382 13.731 58.773 6.598 16.296-7.096 40.373-21.161 54.724-35.277l1.559 1.586c-14.552 14.314-38.917 28.555-55.397 35.729-17.162 7.471-42.121-.615-60.344-6.521a745.685 745.685 0 0 0-5.438-1.746c-1.691-.535-3.462-1.082-5.293-1.649-21.591-6.693-51.16-15.854-62.474-34.76-13.786-23.041-13.813-51.036-.077-83.209 3.847-9.01 8.937-18.204 13.857-27.097 4.166-7.526 8.1-14.635 11.302-21.575l2.02.931Z"/>
        <path d="m98.38 29.204-1.11 1.75C85.609 49.332 74.594 66.69 66.694 87.765l-1.271 3.365c-4.044 10.667-7.864 20.741-7.96 32.424-.104 12.049 1.869 22.382 4.264 33.678l.108.517c2.295 10.84 3.954 18.672 12.24 26.554 9.559 9.096 21.492 15.103 33.03 20.914l3.777 1.91c24.763 12.579 58.679 29.808 91.36 25.156 1.787-.254 3.68-.464 5.619-.677 6.104-.676 12.416-1.372 17.455-3.641 3.229-1.453 6.136-4.017 8.948-6.496 1.988-1.753 4.043-3.564 6.225-5.005 2.731-1.804 5.745-3.648 8.935-5.602 10.092-6.18 21.53-13.187 27.885-21.347l1.755 1.368c-6.603 8.478-18.225 15.596-28.478 21.876-3.174 1.944-6.173 3.78-8.873 5.562-2.051 1.354-3.958 3.036-5.977 4.816-2.936 2.589-5.972 5.265-9.506 6.856-5.36 2.414-11.849 3.13-18.125 3.822-1.916.213-3.784.419-5.549.669-33.376 4.751-67.654-12.661-92.681-25.376l-3.771-1.904c-11.681-5.885-23.746-11.964-33.563-21.288-8.786-8.359-10.503-16.474-12.882-27.706l-.11-.516c-2.422-11.428-4.417-21.885-4.313-34.159.103-12.081 3.99-22.337 8.107-33.195l1.268-3.356c7.981-21.29 19.055-38.744 30.781-57.224l1.109-1.746 1.878 1.19Z"/>
        <path d="M85.222 15.66c-5.11 12.032-11.127 24.243-16.943 36.052C60.46 67.58 52.376 83.99 46.148 100.58c-8.674 23.111-4.717 56.87 9.208 78.526 18.718 29.116 39.447 46.268 69.311 57.353 26.013 9.657 58.314 14.322 90.952 13.137 31.307-1.136 53.562-23.039 75.465-47.334l1.652 1.49c-22.237 24.664-44.86 46.9-77.035 48.067-32.924 1.197-65.529-3.519-91.809-13.275-30.351-11.265-51.408-28.68-70.408-58.234-14.268-22.193-18.317-56.804-9.419-80.51 6.266-16.696 14.375-33.155 22.217-49.072 5.805-11.78 11.808-23.963 16.893-35.938l2.047.868Z"/>
        <path d="M78.063 4.29c-1.067 4.82-4.679 9.23-8.172 13.497-1.478 1.806-2.876 3.512-4.058 5.215-5.06 7.29-9.095 15.558-12.997 23.554a759.43 759.43 0 0 1-2.465 5.02c-1.11 2.24-2.244 4.481-3.38 6.726-7.36 14.539-14.97 29.57-16.85 45.654-.65 5.554-2.372 10.437-4.036 15.158-.88 2.493-1.79 5.072-2.532 7.722-2.272 8.119-2.01 19.877-1.653 26.165 1.488 26.056 20.929 49.347 29.22 58.15 6.056 6.429 13.501 11.307 20.699 16.02 1.69 1.108 3.378 2.213 5.05 3.337 3.548 2.39 6.947 5.072 10.232 7.665 5.24 4.135 10.66 8.409 16.66 11.44 17.533 8.857 36.257 10.262 50.611 10.497 7.801.127 15.67-.716 23.279-1.533 10.19-1.093 20.728-2.225 31.314-1.056 10.862 1.199 19.719 1.443 30.293-1.038 8.419-1.973 14.563-7.097 21.067-12.519 2.578-2.151 5.243-4.374 8.061-6.385 4.34-3.096 8.676-7.403 12.87-11.568 6.306-6.266 12.829-12.744 19.866-15.71l.863 2.05c-6.639 2.797-13.005 9.123-19.161 15.237-4.257 4.23-8.658 8.601-13.145 11.803-2.75 1.961-5.384 4.158-7.929 6.28-6.418 5.351-13.053 10.884-21.983 12.978-10.849 2.545-20.256 2.274-31.048 1.083-10.344-1.142-20.758-.024-30.831 1.056-7.676.825-15.615 1.676-23.553 1.546-14.591-.239-33.64-1.674-51.577-10.734-6.2-3.133-11.707-7.478-17.034-11.682-3.253-2.567-6.619-5.223-10.099-7.564a467.282 467.282 0 0 0-5.024-3.321c-7.307-4.788-14.862-9.738-21.101-16.358-8.457-8.98-28.292-32.761-29.82-59.549-.366-6.425-.628-18.461 1.731-26.89.763-2.721 1.684-5.334 2.575-7.862 1.7-4.817 3.306-9.369 3.927-14.676 1.925-16.476 9.626-31.688 17.073-46.4a995.81 995.81 0 0 0 3.373-6.709c.822-1.657 1.638-3.33 2.457-5.01 3.94-8.07 8.012-16.416 13.172-23.846 1.23-1.774 2.72-3.595 4.162-5.355 3.329-4.065 6.77-8.267 7.72-12.569l2.173.48Z"/>
    </g>
</svg>