<svg width="238" height="225" fill="none" xmlns="http://www.w3.org/2000/svg">
    <path
            d="M124.672 20.226c-.03-.033-.06-.066-.089-.102L111.748 4.549a2.783 2.783 0 0 1 .379-3.918 2.792 2.792 0 0 1 3.917.38l12.836 15.574a2.784 2.784 0 0 1-4.208 3.641ZM133.879 6.202a2.783 2.783 0 0 1 4.084-3.782l15.304 16.179c1.024 1.14 1.008 2.878-.109 3.935a2.784 2.784 0 0 1-3.933-.11L133.919 6.246a1.6 1.6 0 0 0-.04-.044ZM108.199 31.395a2.782 2.782 0 0 1 3.96-3.902l15.846 14.772c1.15 1.033 1.186 2.808.14 3.931a2.784 2.784 0 0 1-3.934.138l-15.846-14.773a2.744 2.744 0 0 1-.166-.166ZM83.356 40.933c-1.024-1.13-.972-2.904.15-3.941 1.13-1.043 2.865-1 3.907.13l.05.054L98.74 49.385a2.782 2.782 0 0 1-.156 3.933 2.782 2.782 0 0 1-3.93-.156l-11.28-12.21a.173.173 0 0 1-.017-.02ZM63.19 50.583a2.782 2.782 0 0 1 4.097-3.766l6.643 7.122.025.029a2.783 2.783 0 0 1-4.097 3.765l-6.642-7.123-.026-.027ZM29.419 53.1a2.782 2.782 0 0 1 4.042-3.823l22.998 23.28c1.06 1.079 1.072 2.855-.024 3.936a2.78 2.78 0 0 1-3.934-.025l-23-23.28a2.057 2.057 0 0 1-.082-.088ZM29.466 85.854a2.783 2.783 0 0 1 4.004-3.861l15.483 15.076c1.048 1.097 1.125 2.833.051 3.935a2.781 2.781 0 0 1-3.933.052L29.588 85.98c-.041-.041-.083-.083-.122-.126ZM1.22 86.242a2.783 2.783 0 0 1 4.031-3.835l20.185 20.197c1.074 1.04 1.087 2.849-.002 3.938a2.783 2.783 0 0 1-3.934-.002L1.314 86.342a2.493 2.493 0 0 1-.094-.1ZM153.176 55.336a2.378 2.378 0 0 1-.207-.257l-10.572-14.823a2.783 2.783 0 0 1 .65-3.882c1.251-.893 2.997-.611 3.88.65l10.571 14.823a2.782 2.782 0 0 1-4.322 3.489ZM166.583 49.807a2.783 2.783 0 0 1 4.021-3.847l8.42 8.334c1.076 1.075 1.1 2.843.018 3.937a2.783 2.783 0 0 1-3.935.02l-8.42-8.333a2.937 2.937 0 0 1-.104-.111ZM159.932 83.979a3.328 3.328 0 0 1-.2-.243L144.586 62.74a2.783 2.783 0 0 1 .628-3.885c1.246-.9 3.01-.598 3.885.626l15.148 20.994a2.784 2.784 0 0 1-4.315 3.503ZM137.695 84.44c-.027-.03-.055-.06-.081-.093l-11.566-13.923a2.784 2.784 0 0 1 .363-3.919c1.18-.98 2.971-.728 3.916.363l11.567 13.921a2.78 2.78 0 0 1-.36 3.918 2.784 2.784 0 0 1-3.839-.267ZM106.019 79.458a2.783 2.783 0 0 1 4.033-3.834l9.835 9.867c1.129 1.077 1.084 2.848-.006 3.936a2.785 2.785 0 0 1-3.936-.007l-9.833-9.864c-.032-.032-.062-.064-.093-.098ZM93.576 92.616c-.038-.042-.074-.087-.11-.13l-6.982-8.695a2.781 2.781 0 0 1 .425-3.91c1.2-.964 2.914-.775 3.913.426l6.983 8.696a2.782 2.782 0 0 1-4.229 3.613ZM72.928 100.002a2.783 2.783 0 0 1 3.978-3.887L92.62 111.02a2.782 2.782 0 0 1-3.83 4.035l-15.715-14.904a2.86 2.86 0 0 1-.148-.15ZM66.55 119.875l-7.477-8.243a2.783 2.783 0 1 1 4.121-3.739l7.478 8.243a2.782 2.782 0 1 1-4.121 3.739ZM54.185 138.566a5.735 5.735 0 0 1-.119-.139l-16.042-20.174a2.783 2.783 0 0 1 .445-3.909c1.203-.955 2.933-.682 3.912.445l16.041 20.173a2.784 2.784 0 0 1-4.237 3.604ZM108.296 112.017a2.782 2.782 0 0 1 3.915-3.943l16.161 14.429c1.136 1.042 1.248 2.783.224 3.927a2.783 2.783 0 0 1-3.93.223l-16.16-14.429a2.416 2.416 0 0 1-.21-.207ZM127.385 105.039a2.778 2.778 0 0 1-.023-3.705 2.781 2.781 0 0 1 3.927-.249l14.175 12.498a2.797 2.797 0 0 1 .247 3.928 2.784 2.784 0 0 1-3.928.248l-14.175-12.498a2.92 2.92 0 0 1-.223-.222ZM193.655 104.195a2.34 2.34 0 0 1-.134-.159l-19.315-24.72a2.78 2.78 0 0 1 .478-3.904c1.212-.95 2.977-.772 3.905.478l19.317 24.722a2.778 2.778 0 0 1-.479 3.903 2.779 2.779 0 0 1-3.772-.32ZM167.116 98.258a2.783 2.783 0 0 1 4.024-3.842l9.387 9.331c1.077 1.045 1.096 2.846.012 3.935a2.783 2.783 0 0 1-3.936.014l-9.387-9.332a1.76 1.76 0 0 1-.1-.106ZM163.288 119.577a2.785 2.785 0 0 1 .127-3.868 2.78 2.78 0 0 1 3.933.064l11.625 12.005c1.065 1.04 1.039 2.865-.064 3.934a2.782 2.782 0 0 1-3.933-.066l-11.624-12.003c-.023-.021-.043-.044-.064-.066ZM159.785 161.178l-.006-.006-17.232-19.119a2.783 2.783 0 0 1 4.128-3.734c.001.003.003.004.005.006l17.231 19.12a2.782 2.782 0 0 1-4.126 3.733ZM97.008 133.53a2.782 2.782 0 0 1 4.081-3.784l20.115 21.201c1.044 1.09 1.01 2.878-.104 3.935a2.783 2.783 0 0 1-3.934-.102l-20.115-21.202-.043-.048ZM72.83 151.747a2.783 2.783 0 0 1 4.036-3.83l10.804 10.861a2.787 2.787 0 0 1-.01 3.935 2.783 2.783 0 0 1-3.936-.01l-10.803-10.861a1.451 1.451 0 0 1-.09-.095ZM65.366 181.104l-.038-.042-17.825-20.464a2.784 2.784 0 0 1 .271-3.927c1.159-1.008 2.825-.814 3.926.27l17.824 20.465a2.783 2.783 0 0 1-4.158 3.698ZM117.21 171.708a2.784 2.784 0 0 1 3.829-4.018l14.681 12.041c1.178.995 1.361 2.729.387 3.916a2.783 2.783 0 0 1-3.916.387l-14.682-12.041a3.11 3.11 0 0 1-.299-.285ZM97.395 176.554a2.783 2.783 0 0 1 4.024-3.843l8.901 8.837c1.102 1.011 1.096 2.843.011 3.935a2.782 2.782 0 0 1-3.935.013l-8.9-8.835a2.651 2.651 0 0 1-.101-.107ZM160.497 183.093l-15.425-17.002a2.784 2.784 0 0 1 4.122-3.74l15.425 17.002a2.78 2.78 0 0 1-.191 3.93 2.782 2.782 0 0 1-3.931-.19ZM176.612 153.492a2.783 2.783 0 0 1 4.067-3.8l12.081 12.528c1.002 1.142 1.032 2.867-.073 3.935a2.784 2.784 0 0 1-3.935-.072l-12.082-12.527-.058-.064ZM197.301 126.166a2.782 2.782 0 0 1 4.045-3.819l14.64 14.89c1.15 1.127 1.06 2.86-.034 3.934a2.782 2.782 0 0 1-3.934-.034l-14.639-14.89a1.975 1.975 0 0 1-.078-.081ZM213.29 111.63a2.783 2.783 0 0 1 4.055-3.809l13.11 13.468c1.181 1.072 1.05 2.864-.052 3.935a2.784 2.784 0 0 1-3.935-.054l-13.11-13.468c-.025-.024-.046-.048-.068-.072ZM207.087 164.344a2.783 2.783 0 0 1 3.932-3.929l10.359 9.392c1.115 1.039 1.223 2.792.193 3.929a2.782 2.782 0 0 1-3.931.192l-10.359-9.391a3.533 3.533 0 0 1-.194-.193ZM193.567 191.7l-10.751-11.849a2.782 2.782 0 1 1 4.121-3.74l10.751 11.85a2.783 2.783 0 0 1-4.121 3.739ZM157.242 203.138c-1.028-1.133-.968-2.907.16-3.941 1.133-1.039 2.873-.986 3.913.147l13.641 14.863.011.012a2.782 2.782 0 0 1-4.111 3.752l-13.604-14.822-.01-.011ZM136.155 206.981a2.782 2.782 0 0 1 4.018-3.845l10.894 10.769c1.129.999 1.103 2.84.024 3.933a2.78 2.78 0 0 1-3.935.023l-10.894-10.771c-.039-.034-.072-.071-.107-.109ZM131.853 224.089c-.034-.038-.07-.076-.101-.12l-14.494-17.856a2.783 2.783 0 0 1 .406-3.912c1.196-.971 2.963-.855 3.915.408l14.493 17.856a2.783 2.783 0 0 1-4.219 3.624ZM223.318 156.204a2.784 2.784 0 0 1 3.762-4.071l8.966 6.917a2.782 2.782 0 1 1-3.4 4.406l-8.964-6.916a2.848 2.848 0 0 1-.364-.336Z"
            fill="#F1EFEF"/>
</svg>