<svg class="w-full" viewBox="0 0 128 40" fill="none" xmlns="http://www.w3.org/2000/svg">
    <path d="M28.095 13.294h-13.79c-6.707 0-12.224 5.094-12.895 11.623H15.2c6.706 0 12.224-5.093 12.895-11.623ZM1.341 38.26V24.918h11.623v.447c0 6.707-5.093 12.224-11.623 12.895ZM1.41 13.294H15.2c6.706 0 12.224-5.093 12.895-11.623h-13.79c-6.707 0-12.224 5.094-12.895 11.623Z" stroke="currentColor" stroke-width="2.682"/>
    <path d="M38.776 16.145V3.14h8.33v1.975h-5.974v3.53h5.403v1.975h-5.403v5.525h-2.356ZM49.37 16.145V6.39h2.228v1.626h.102c.178-.563.483-.997.914-1.302a2.516 2.516 0 0 1 1.493-.463c.127 0 .268.006.425.019.16.008.294.023.4.044V8.43a2.416 2.416 0 0 0-.463-.09 4.267 4.267 0 0 0-.604-.044c-.419 0-.796.091-1.13.273-.33.178-.59.426-.781.743-.19.318-.286.684-.286 1.099v5.734H49.37ZM60.733 16.335c-.978 0-1.822-.203-2.533-.61a4.129 4.129 0 0 1-1.632-1.74c-.381-.753-.572-1.64-.572-2.66 0-1.003.19-1.884.572-2.641a4.322 4.322 0 0 1 1.613-1.778c.69-.428 1.5-.642 2.432-.642.6 0 1.168.098 1.702.292.537.19 1.011.487 1.422.89.415.402.74.914.978 1.536.237.618.355 1.355.355 2.21v.705h-7.994v-1.55h5.79c-.003-.44-.099-.831-.285-1.174a2.077 2.077 0 0 0-.78-.82 2.196 2.196 0 0 0-1.157-.298c-.47 0-.882.114-1.238.343-.355.224-.633.52-.832.889a2.56 2.56 0 0 0-.298 1.2v1.353c0 .567.104 1.054.311 1.46.207.402.497.711.87.927.373.212.809.318 1.308.318.334 0 .637-.047.908-.14.271-.097.506-.24.705-.425.199-.187.35-.417.45-.693l2.147.242a3.346 3.346 0 0 1-.775 1.486c-.376.419-.859.745-1.447.977-.589.23-1.262.343-2.02.343ZM59.667 5.11l1.422-2.902h2.248l-1.95 2.902h-1.72ZM70.992 16.316c-.766 0-1.452-.197-2.057-.59-.606-.394-1.084-.965-1.435-1.715-.352-.749-.527-1.66-.527-2.73 0-1.084.177-1.998.533-2.743.36-.75.845-1.315 1.454-1.696A3.737 3.737 0 0 1 71 6.264c.571 0 1.04.098 1.41.292.367.19.66.422.875.693.216.266.384.518.502.755h.095V3.14h2.305v13.005h-2.26v-1.537h-.14c-.118.237-.29.49-.514.756a2.83 2.83 0 0 1-.89.673c-.368.186-.831.28-1.39.28Zm.641-1.886c.487 0 .902-.13 1.245-.393.343-.267.603-.637.781-1.112.178-.474.267-1.026.267-1.657 0-.63-.089-1.179-.267-1.645-.173-.465-.432-.827-.775-1.085-.338-.259-.755-.388-1.25-.388-.513 0-.94.134-1.283.4-.343.267-.601.635-.775 1.105-.173.47-.26 1.008-.26 1.613 0 .61.087 1.154.26 1.632.178.474.438.849.781 1.124.347.271.773.406 1.276.406ZM83.312 16.335c-.978 0-1.823-.203-2.534-.61a4.128 4.128 0 0 1-1.632-1.74c-.381-.753-.572-1.64-.572-2.66 0-1.003.191-1.884.572-2.641a4.322 4.322 0 0 1 1.613-1.778c.69-.428 1.5-.642 2.432-.642.601 0 1.168.098 1.702.292.537.19 1.012.487 1.422.89.415.402.741.914.978 1.536.237.618.356 1.355.356 2.21v.705h-7.995v-1.55h5.791c-.004-.44-.1-.831-.285-1.174a2.078 2.078 0 0 0-.782-.82 2.196 2.196 0 0 0-1.155-.298c-.47 0-.883.114-1.239.343-.355.224-.632.52-.831.889a2.558 2.558 0 0 0-.299 1.2v1.353c0 .567.104 1.054.311 1.46.208.402.498.711.87.927.373.212.809.318 1.308.318.335 0 .638-.047.908-.14.271-.097.506-.24.705-.425.2-.187.35-.417.451-.693l2.146.242a3.345 3.345 0 0 1-.774 1.486c-.377.419-.86.745-1.448.977-.588.23-1.262.343-2.02.343ZM82.245 5.11l1.422-2.902h2.248l-1.95 2.902h-1.72ZM89.951 16.145V6.39h2.229v1.626h.101c.178-.563.483-.997.915-1.302a2.516 2.516 0 0 1 1.492-.463c.127 0 .269.006.426.019.16.008.294.023.4.044V8.43a2.418 2.418 0 0 0-.464-.09 4.268 4.268 0 0 0-.603-.044c-.42 0-.796.091-1.13.273-.33.178-.591.426-.781.743-.191.318-.286.684-.286 1.099v5.734H89.95ZM97.398 16.145V6.39h2.3v9.754h-2.3Zm1.156-11.138c-.364 0-.677-.12-.94-.362a1.167 1.167 0 0 1-.393-.883c0-.347.13-.64.393-.882.263-.246.576-.369.94-.369.368 0 .682.123.94.369.262.241.394.535.394.882 0 .343-.132.638-.394.883a1.326 1.326 0 0 1-.94.362ZM106.673 16.335c-.974 0-1.81-.213-2.508-.64a4.287 4.287 0 0 1-1.607-1.773c-.372-.757-.559-1.63-.559-2.616 0-.99.191-1.865.572-2.622a4.267 4.267 0 0 1 1.613-1.778c.698-.428 1.524-.642 2.476-.642.792 0 1.493.146 2.102.438a3.59 3.59 0 0 1 1.467 1.226c.364.525.572 1.139.622 1.842h-2.197c-.089-.47-.3-.862-.635-1.175-.33-.318-.772-.476-1.327-.476-.47 0-.883.127-1.238.38-.356.25-.633.61-.832 1.08-.195.47-.292 1.033-.292 1.69 0 .664.097 1.235.292 1.714.195.474.468.84.819 1.098.356.254.773.381 1.251.381.339 0 .641-.063.908-.19.271-.132.498-.32.68-.566a2.16 2.16 0 0 0 .374-.895h2.197a3.834 3.834 0 0 1-.609 1.835c-.352.53-.83.944-1.435 1.245-.606.296-1.317.444-2.134.444ZM49.907 28.986h-2.375a2.955 2.955 0 0 0-.374-1.035A2.781 2.781 0 0 0 45.55 26.7a3.616 3.616 0 0 0-1.111-.165c-.707 0-1.334.178-1.88.533-.546.352-.973.868-1.282 1.55-.31.677-.464 1.505-.464 2.483 0 .994.154 1.833.464 2.514.313.677.74 1.19 1.282 1.537.546.343 1.17.514 1.873.514.39 0 .754-.05 1.093-.152.343-.106.65-.26.92-.464a2.828 2.828 0 0 0 1.086-1.765l2.375.013a5.115 5.115 0 0 1-.578 1.74 5.13 5.13 0 0 1-1.149 1.435 5.302 5.302 0 0 1-1.664.965c-.635.228-1.34.343-2.114.343-1.143 0-2.163-.265-3.06-.794-.898-.53-1.605-1.293-2.122-2.292-.516-1-.774-2.197-.774-3.595 0-1.4.26-2.599.78-3.594.521-.999 1.23-1.763 2.128-2.292.897-.53 1.913-.794 3.048-.794a6.47 6.47 0 0 1 2.02.305 5.172 5.172 0 0 1 1.663.895c.487.39.887.868 1.2 1.435.317.564.525 1.207.622 1.93ZM54.62 31.888v5.715h-2.3V24.598h2.249v4.909h.114c.228-.55.582-.985 1.06-1.302.483-.322 1.097-.483 1.842-.483.677 0 1.268.142 1.771.426a2.87 2.87 0 0 1 1.169 1.244c.28.546.419 1.213.419 2v6.21h-2.299v-5.854c0-.656-.169-1.166-.508-1.53-.334-.369-.804-.553-1.41-.553-.406 0-.77.09-1.092.267a1.866 1.866 0 0 0-.749.756c-.178.33-.267.73-.267 1.2ZM67.264 37.774c-.766 0-1.452-.197-2.057-.59-.605-.394-1.084-.965-1.435-1.715-.352-.749-.527-1.66-.527-2.73 0-1.084.178-1.998.533-2.743.36-.75.845-1.315 1.454-1.696a3.737 3.737 0 0 1 2.039-.578c.571 0 1.041.098 1.41.292.368.19.66.422.876.692.215.267.383.52.501.756h.095V27.85h2.306v9.754h-2.261v-1.537h-.14c-.118.237-.29.49-.514.756-.224.262-.52.487-.89.673-.367.186-.83.28-1.39.28Zm.642-1.886c.486 0 .901-.13 1.244-.393.343-.267.603-.637.781-1.112.178-.474.267-1.026.267-1.657 0-.63-.089-1.179-.267-1.645-.173-.465-.431-.827-.774-1.085-.34-.259-.756-.388-1.251-.388-.513 0-.94.134-1.283.4-.343.267-.601.635-.775 1.105-.173.47-.26 1.008-.26 1.613 0 .61.087 1.154.26 1.632.178.474.438.849.781 1.124.347.27.773.406 1.277.406ZM82.975 30.427l-2.096.229a1.681 1.681 0 0 0-.311-.597 1.545 1.545 0 0 0-.584-.45c-.246-.115-.546-.172-.902-.172-.478 0-.88.104-1.206.31-.322.208-.48.477-.477.807-.004.284.1.515.311.693.216.177.572.323 1.067.438l1.664.355c.923.2 1.609.515 2.057.946.453.432.682.997.686 1.696a2.652 2.652 0 0 1-.54 1.625c-.35.466-.84.83-1.466 1.093-.627.262-1.347.393-2.16.393-1.193 0-2.154-.25-2.882-.749-.728-.504-1.162-1.204-1.302-2.102l2.242-.216c.101.44.317.773.647.997.33.225.76.337 1.29.337.545 0 .983-.112 1.314-.337.334-.224.501-.501.501-.832 0-.279-.108-.51-.324-.692-.211-.182-.541-.322-.99-.419l-1.664-.35c-.935-.194-1.627-.522-2.076-.983-.449-.466-.671-1.054-.667-1.766-.004-.6.159-1.122.489-1.562.334-.444.798-.787 1.39-1.028.597-.246 1.285-.369 2.064-.369 1.143 0 2.043.244 2.7.73.66.487 1.068 1.146 1.225 1.975ZM90.308 27.85v1.777H84.7V27.85h5.607Zm-4.223-2.338h2.299v9.157c0 .31.046.546.14.711.097.161.224.271.38.33.157.06.33.09.521.09.144 0 .275-.011.394-.032.123-.021.216-.04.28-.057l.387 1.797a5.117 5.117 0 0 1-.528.14c-.224.05-.499.08-.825.088-.576.017-1.094-.07-1.556-.26a2.42 2.42 0 0 1-1.098-.902c-.267-.406-.398-.914-.394-1.524v-9.537ZM96.801 37.793c-.978 0-1.822-.203-2.534-.61a4.13 4.13 0 0 1-1.632-1.74c-.38-.753-.571-1.64-.571-2.66 0-1.003.19-1.884.572-2.641a4.32 4.32 0 0 1 1.612-1.778c.69-.428 1.501-.642 2.432-.642.602 0 1.169.098 1.702.292.538.19 1.012.487 1.423.89.414.401.74.914.978 1.536.237.618.355 1.355.355 2.21v.705h-7.995v-1.55h5.792c-.005-.44-.1-.831-.286-1.174a2.077 2.077 0 0 0-.781-.82 2.195 2.195 0 0 0-1.156-.298c-.47 0-.883.114-1.238.343-.356.224-.633.52-.832.889a2.558 2.558 0 0 0-.298 1.2v1.353c0 .567.103 1.054.31 1.46.208.402.498.711.87.927.373.212.81.318 1.309.318.334 0 .637-.047.908-.14.27-.097.506-.24.705-.425.199-.187.349-.418.45-.693l2.147.242a3.353 3.353 0 0 1-.775 1.486c-.377.419-.86.745-1.448.977-.588.23-1.261.343-2.019.343ZM105.739 24.598v13.005h-2.299V24.598h2.299ZM112.08 37.774c-.766 0-1.452-.197-2.057-.59-.606-.394-1.084-.965-1.435-1.715-.352-.749-.527-1.66-.527-2.73 0-1.084.177-1.998.533-2.743.36-.75.844-1.315 1.454-1.696a3.738 3.738 0 0 1 2.038-.578c.572 0 1.042.098 1.41.292.368.19.661.422.876.692a4.2 4.2 0 0 1 .502.756h.095V27.85h2.305v9.754h-2.26v-1.537h-.14c-.118.237-.29.49-.514.756a2.838 2.838 0 0 1-.889.673c-.369.186-.832.28-1.391.28Zm.641-1.886c.487 0 .902-.13 1.245-.393.343-.267.603-.637.781-1.112.178-.474.267-1.026.267-1.657 0-.63-.089-1.179-.267-1.645-.173-.465-.432-.827-.775-1.085-.338-.259-.755-.388-1.251-.388-.512 0-.939.134-1.282.4-.343.267-.601.635-.775 1.105-.174.47-.26 1.008-.26 1.613 0 .61.086 1.154.26 1.632.178.474.438.849.781 1.124.347.27.773.406 1.276.406ZM127.79 30.427l-2.095.229a1.681 1.681 0 0 0-.311-.597 1.549 1.549 0 0 0-.584-.45c-.246-.115-.547-.172-.902-.172-.478 0-.881.104-1.207.31-.321.208-.48.477-.476.807-.004.284.1.515.311.693.216.177.572.323 1.067.438l1.664.355c.923.2 1.608.515 2.057.946.453.432.682.997.686 1.696a2.649 2.649 0 0 1-.54 1.625c-.351.466-.84.83-1.467 1.093-.626.262-1.346.393-2.159.393-1.193 0-2.154-.25-2.883-.749-.728-.504-1.162-1.204-1.301-2.102l2.241-.216c.102.44.318.773.648.997.33.225.76.337 1.289.337.546 0 .984-.112 1.314-.337.335-.224.502-.501.502-.832 0-.279-.108-.51-.324-.692-.211-.182-.542-.322-.99-.419l-1.664-.35c-.936-.194-1.628-.522-2.076-.983-.449-.466-.671-1.054-.667-1.766-.004-.6.159-1.122.489-1.562.334-.444.798-.787 1.39-1.028.597-.246 1.285-.369 2.064-.369 1.143 0 2.043.244 2.699.73.66.487 1.069 1.146 1.225 1.975Z" fill="currentColor"/>
</svg>
