<svg class="w-full" width="134" height="40" fill="none" xmlns="http://www.w3.org/2000/svg"><path d="M28.095 13.294h-13.79c-6.707 0-12.224 5.094-12.895 11.623H15.2c6.706 0 12.224-5.093 12.895-11.623ZM1.341 38.26V24.918h11.623v.447c0 6.707-5.093 12.224-11.623 12.895ZM1.41 13.294H15.2c6.706 0 12.224-5.093 12.895-11.623h-13.79c-6.707 0-12.224 5.094-12.895 11.623Z" stroke="#4F4F4F" stroke-width="2.682"/><path d="M38.592 16.002V2.347h9.321v2.68h-6.02v2.8h5.427v2.687h-5.427v5.488h-3.3ZM49.373 16.002V5.76h3.168v1.867h.106c.187-.675.491-1.178.914-1.507a2.31 2.31 0 0 1 1.473-.5c.271 0 .53.034.774.1.244.067.464.158.66.274l-.96 2.68a2.83 2.83 0 0 0-.46-.18 1.822 1.822 0 0 0-.534-.073 1.83 1.83 0 0 0-1.62.96c-.169.298-.256.65-.26 1.06V16h-3.26ZM61.788 16.195c-1.07 0-1.995-.211-2.773-.633a4.382 4.382 0 0 1-1.787-1.82c-.413-.792-.62-1.732-.62-2.821 0-1.058.209-1.983.627-2.774A4.525 4.525 0 0 1 59 6.294c.76-.445 1.656-.667 2.687-.667.73 0 1.396.113 2 .34a4.299 4.299 0 0 1 1.567 1.007c.44.444.783.993 1.027 1.647.245.649.367 1.393.367 2.233v.814h-8.901V9.774h5.867a1.836 1.836 0 0 0-.246-.927 1.675 1.675 0 0 0-.66-.633 1.906 1.906 0 0 0-.954-.233c-.364 0-.691.082-.98.246-.289.16-.518.38-.687.66a1.856 1.856 0 0 0-.267.94v1.927c0 .418.083.785.247 1.1.165.312.398.554.7.727.303.174.663.26 1.08.26.29 0 .552-.04.787-.12a1.68 1.68 0 0 0 .607-.353 1.46 1.46 0 0 0 .38-.574l2.994.087a3.703 3.703 0 0 1-.82 1.754c-.418.493-.967.878-1.647 1.153-.68.271-1.467.407-2.36.407ZM60.508 4.46l1.347-3.007h2.887L62.728 4.46h-2.22ZM72.055 16.148a3.773 3.773 0 0 1-2.06-.586c-.618-.392-1.112-.978-1.48-1.76-.37-.783-.554-1.754-.554-2.914 0-1.205.191-2.196.573-2.974.382-.778.883-1.354 1.5-1.727a3.833 3.833 0 0 1 2.007-.56c.538 0 .998.093 1.38.28.383.182.698.418.947.707.25.289.438.589.567.9h.067V2.347h3.26v13.655h-3.227v-1.66h-.1a3.203 3.203 0 0 1-.587.886 2.825 2.825 0 0 1-.953.667c-.378.169-.825.253-1.34.253Zm1.133-2.54a1.58 1.58 0 0 0 1.014-.333c.28-.227.495-.545.646-.954.151-.409.227-.889.227-1.44 0-.56-.076-1.042-.227-1.447-.146-.404-.362-.716-.646-.933-.28-.218-.618-.327-1.014-.327-.404 0-.747.111-1.027.333-.28.223-.493.536-.64.94-.142.405-.213.883-.213 1.434 0 .551.073 1.031.22 1.44.147.409.358.727.633.954.28.222.623.333 1.027.333ZM85.111 16.195c-1.07 0-1.996-.211-2.773-.633a4.38 4.38 0 0 1-1.787-1.82c-.414-.792-.62-1.732-.62-2.821 0-1.058.209-1.983.626-2.774a4.526 4.526 0 0 1 1.767-1.853c.76-.445 1.656-.667 2.687-.667.73 0 1.396.113 2 .34a4.3 4.3 0 0 1 1.568 1.007c.44.444.782.993 1.026 1.647.245.649.367 1.393.367 2.233v.814h-8.901V9.774h5.867a1.836 1.836 0 0 0-.246-.927 1.677 1.677 0 0 0-.66-.633 1.906 1.906 0 0 0-.954-.233c-.365 0-.691.082-.98.246-.289.16-.518.38-.687.66a1.856 1.856 0 0 0-.267.94v1.927c0 .418.083.785.247 1.1.165.312.398.554.7.727.303.174.663.26 1.08.26.29 0 .551-.04.787-.12a1.68 1.68 0 0 0 .607-.353c.169-.156.296-.347.38-.574l2.994.087a3.702 3.702 0 0 1-.82 1.754c-.418.493-.967.878-1.647 1.153-.68.271-1.467.407-2.36.407ZM83.831 4.46l1.347-3.007h2.887L86.052 4.46h-2.22ZM91.637 16.002V5.76h3.167v1.867h.107c.187-.675.491-1.178.913-1.507a2.31 2.31 0 0 1 1.474-.5c.271 0 .529.034.773.1.245.067.465.158.66.274l-.96 2.68a2.831 2.831 0 0 0-.46-.18 1.82 1.82 0 0 0-.533-.073 1.83 1.83 0 0 0-1.62.96c-.17.298-.256.65-.26 1.06V16h-3.26ZM99.796 16.002V5.76h3.261v10.242h-3.26Zm1.634-11.435c-.458 0-.851-.151-1.18-.454a1.46 1.46 0 0 1-.493-1.106c0-.427.164-.792.493-1.094a1.67 1.67 0 0 1 1.18-.46c.462 0 .856.153 1.18.46.329.302.494.667.494 1.094 0 .43-.165.8-.494 1.106a1.668 1.668 0 0 1-1.18.454ZM109.913 16.195c-1.08 0-2.007-.222-2.781-.667a4.507 4.507 0 0 1-1.773-1.853c-.413-.796-.62-1.716-.62-2.76 0-1.05.207-1.97.62-2.761a4.545 4.545 0 0 1 1.78-1.86c.774-.445 1.696-.667 2.767-.667.947 0 1.771.171 2.474.513a3.926 3.926 0 0 1 1.653 1.454c.4.622.612 1.353.634 2.193h-3.047c-.063-.524-.24-.935-.534-1.233-.289-.298-.666-.447-1.133-.447-.378 0-.709.107-.994.32-.284.21-.506.52-.666.934-.156.409-.234.915-.234 1.52 0 .604.078 1.116.234 1.533.16.414.382.727.666.94.285.21.616.314.994.314.302 0 .569-.064.8-.193.235-.13.429-.318.58-.567.151-.253.247-.56.287-.92h3.047c-.031.844-.243 1.582-.634 2.213-.386.631-.931 1.123-1.633 1.474-.698.347-1.527.52-2.487.52ZM50.987 29.646h-3.334a2.888 2.888 0 0 0-.273-.927 2.253 2.253 0 0 0-.547-.707 2.333 2.333 0 0 0-.807-.446 3.088 3.088 0 0 0-1.02-.16c-.662 0-1.233.162-1.713.486-.476.325-.843.794-1.1 1.407-.254.614-.38 1.356-.38 2.227 0 .907.128 1.667.386 2.28.263.61.63 1.07 1.1 1.38.476.307 1.038.46 1.687.46.365 0 .696-.046.994-.14.302-.093.567-.228.793-.406.231-.182.42-.402.567-.66.151-.262.255-.558.313-.887l3.334.02a5.05 5.05 0 0 1-.527 1.787 5.704 5.704 0 0 1-1.193 1.607c-.507.48-1.125.862-1.854 1.147-.724.284-1.555.426-2.493.426-1.236 0-2.343-.27-3.32-.813-.974-.547-1.743-1.343-2.308-2.387-.564-1.045-.846-2.316-.846-3.814 0-1.502.286-2.776.86-3.82.573-1.045 1.349-1.838 2.327-2.38.977-.543 2.073-.814 3.287-.814.826 0 1.59.115 2.293.347.703.226 1.32.56 1.854 1 .533.435.967.97 1.3 1.606.333.636.54 1.363.62 2.18ZM56.136 32.513v5.84h-3.26V24.699h3.153v5.294h.114a2.967 2.967 0 0 1 1.133-1.48c.53-.355 1.176-.533 1.94-.533.72 0 1.347.16 1.88.48.534.316.947.762 1.24 1.34.299.578.445 1.254.44 2.027v6.528h-3.26v-5.888c.005-.569-.137-1.013-.426-1.333-.29-.32-.696-.48-1.22-.48-.343 0-.645.075-.907.226-.258.147-.46.358-.607.634-.142.275-.215.609-.22 1ZM68.553 38.5a3.772 3.772 0 0 1-2.06-.587c-.618-.39-1.112-.977-1.48-1.76-.37-.782-.554-1.753-.554-2.913 0-1.205.19-2.196.573-2.974.382-.778.883-1.354 1.5-1.727a3.834 3.834 0 0 1 2.007-.56c.538 0 .998.093 1.38.28.383.182.698.418.947.707.25.289.438.589.567.9h.067v-1.754h3.26v10.242h-3.227v-1.66h-.1a3.202 3.202 0 0 1-.587.886 2.826 2.826 0 0 1-.953.667c-.378.169-.825.253-1.34.253Zm1.133-2.54a1.58 1.58 0 0 0 1.013-.333c.28-.227.496-.545.647-.954.151-.409.227-.889.227-1.44 0-.56-.076-1.042-.227-1.447-.146-.404-.362-.716-.647-.933-.28-.218-.617-.327-1.013-.327-.404 0-.747.111-1.027.333-.28.223-.493.536-.64.94-.142.405-.213.883-.213 1.434 0 .551.073 1.031.22 1.44.147.41.358.727.633.954.28.222.623.333 1.027.333ZM85.763 31.24l-2.994.08a1.117 1.117 0 0 0-.253-.567 1.364 1.364 0 0 0-.54-.394 1.842 1.842 0 0 0-.76-.146c-.378 0-.7.075-.967.226-.262.151-.391.356-.387.614-.004.2.076.373.24.52.17.146.47.264.9.353l1.974.374c1.022.195 1.782.52 2.28.973.503.453.756 1.053.76 1.8-.004.703-.213 1.314-.626 1.834-.41.52-.97.924-1.68 1.213-.712.285-1.525.427-2.44.427-1.463 0-2.617-.3-3.461-.9-.84-.605-1.32-1.414-1.44-2.427l3.22-.08c.071.373.256.658.553.853.298.196.678.294 1.14.294.418 0 .758-.078 1.02-.234.263-.155.396-.362.4-.62a.657.657 0 0 0-.306-.553c-.2-.142-.513-.254-.94-.334l-1.787-.34c-1.027-.186-1.791-.53-2.294-1.033-.502-.507-.75-1.151-.746-1.934-.005-.684.177-1.269.546-1.753.37-.49.894-.863 1.574-1.12.68-.258 1.482-.387 2.407-.387 1.387 0 2.48.291 3.28.873.8.578 1.243 1.374 1.327 2.387ZM93.402 28.112v2.4h-6.46v-2.4h6.46Zm-5.107-2.453h3.26v9.474c0 .2.032.362.094.487.067.12.162.207.287.26.124.049.273.073.446.073.125 0 .256-.01.394-.033.142-.027.249-.049.32-.067l.493 2.354c-.156.044-.376.1-.66.167a5.48 5.48 0 0 1-1.007.126c-.764.036-1.42-.053-1.967-.266-.542-.218-.958-.556-1.246-1.014-.285-.458-.423-1.033-.414-1.727V25.66ZM99.743 38.547c-1.071 0-1.996-.211-2.773-.633a4.381 4.381 0 0 1-1.787-1.82c-.414-.792-.62-1.732-.62-2.821 0-1.058.209-1.983.626-2.774a4.525 4.525 0 0 1 1.767-1.853c.76-.445 1.656-.667 2.687-.667.729 0 1.396.113 2 .34a4.295 4.295 0 0 1 1.567 1.007c.44.444.783.993 1.027 1.647.245.649.367 1.393.367 2.233v.814h-8.901v-1.894h5.867a1.833 1.833 0 0 0-.247-.927 1.676 1.676 0 0 0-.66-.633 1.904 1.904 0 0 0-.953-.233c-.365 0-.691.082-.98.246-.29.16-.518.38-.687.66a1.855 1.855 0 0 0-.267.94v1.927c0 .418.083.785.247 1.1.164.312.398.554.7.727.302.174.662.26 1.08.26.289 0 .551-.04.787-.12.236-.08.438-.197.607-.353.169-.156.295-.347.38-.573l2.993.086a3.692 3.692 0 0 1-.82 1.754c-.417.493-.966.878-1.647 1.153-.68.271-1.466.407-2.36.407ZM106.269 24.698h3.26v10.455c.005.267.065.465.18.594.116.124.298.186.547.186.129-.004.231-.01.307-.02.075-.013.138-.029.187-.046l.493 2.3a6.512 6.512 0 0 1-.547.147 5.288 5.288 0 0 1-.907.1c-1.204.053-2.091-.151-2.66-.614-.569-.466-.856-1.229-.86-2.287V24.7ZM115.932 38.5a3.769 3.769 0 0 1-2.06-.587c-.618-.39-1.112-.977-1.481-1.76-.368-.782-.553-1.753-.553-2.913 0-1.205.191-2.196.573-2.974.383-.778.883-1.354 1.501-1.727a3.832 3.832 0 0 1 2.007-.56c.537 0 .997.093 1.38.28.382.182.698.418.947.707.248.289.437.589.566.9h.067v-1.754h3.26v10.242h-3.227v-1.66h-.1a3.212 3.212 0 0 1-.586.886 2.838 2.838 0 0 1-.954.667c-.378.169-.824.253-1.34.253Zm1.133-2.54a1.58 1.58 0 0 0 1.014-.333c.28-.227.495-.545.647-.954.151-.409.226-.889.226-1.44 0-.56-.075-1.042-.226-1.447-.147-.404-.363-.716-.647-.933-.28-.218-.618-.327-1.014-.327-.404 0-.746.111-1.026.333-.28.223-.494.536-.64.94-.143.405-.214.883-.214 1.434 0 .551.073 1.031.22 1.44.147.41.358.727.634.954.28.222.622.333 1.026.333ZM133.142 31.24l-2.993.08a1.115 1.115 0 0 0-.254-.567 1.352 1.352 0 0 0-.54-.394 1.842 1.842 0 0 0-.76-.146c-.378 0-.7.075-.967.226-.262.151-.391.356-.386.614-.005.2.075.373.24.52.169.146.469.264.9.353l1.973.374c1.023.195 1.783.52 2.281.973.502.453.755 1.053.76 1.8-.005.703-.214 1.314-.627 1.834-.409.52-.969.924-1.68 1.213-.711.285-1.525.427-2.441.427-1.462 0-2.615-.3-3.46-.9-.84-.605-1.32-1.414-1.44-2.427l3.22-.08c.071.373.256.658.554.853.298.196.678.294 1.14.294.418 0 .758-.078 1.02-.234.262-.155.396-.362.4-.62a.657.657 0 0 0-.307-.553c-.2-.142-.513-.254-.94-.334l-1.787-.34c-1.026-.186-1.791-.53-2.293-1.033-.503-.507-.752-1.151-.747-1.934-.005-.684.178-1.269.547-1.753.369-.49.893-.863 1.573-1.12.68-.258 1.483-.387 2.407-.387 1.387 0 2.48.291 3.281.873.8.578 1.242 1.374 1.326 2.387Z" fill="#4F4F4F"/></svg>
